<mxfile>
    <diagram id="jhQiM7sxx9m0I-H1LISF" name="Flight Management System">
        <mxGraphModel dx="1374" dy="800" grid="1" gridSize="10" guides="1" tooltips="1" connect="1" arrows="1" fold="1" page="1" pageScale="1" pageWidth="1654" pageHeight="1169" math="0" shadow="0">
            <root>
                <mxCell id="mcHZdyTsLCvfjPUdVITN-0"/>
                <mxCell id="mcHZdyTsLCvfjPUdVITN-1" parent="mcHZdyTsLCvfjPUdVITN-0"/>
                <mxCell id="RT1BsosGw2K4Qha-ZVMB-1" value="&lt;p style=&quot;margin: 6px 0px 0px ; font-size: 16px&quot;&gt;&lt;span style=&quot;font-size: 16px&quot;&gt;Flight Management System&lt;/span&gt;&lt;/p&gt;&lt;p style=&quot;margin: 6px 0px 0px ; font-size: 16px&quot;&gt;&lt;span style=&quot;font-size: 16px&quot;&gt;(FMS)&lt;/span&gt;&lt;/p&gt;" style="align=center;overflow=fill;html=1;dropTarget=0;rounded=0;sketch=0;fontStyle=1;fontSize=16;verticalAlign=top;" vertex="1" parent="mcHZdyTsLCvfjPUdVITN-1">
                    <mxGeometry x="330" y="170" width="440" height="280" as="geometry"/>
                </mxCell>
                <mxCell id="RT1BsosGw2K4Qha-ZVMB-2" value="" style="shape=component;jettyWidth=8;jettyHeight=4;fontStyle=1;fontSize=16;align=center;verticalAlign=top;" vertex="1" parent="RT1BsosGw2K4Qha-ZVMB-1">
                    <mxGeometry x="1" width="20" height="20" relative="1" as="geometry">
                        <mxPoint x="-24" y="4" as="offset"/>
                    </mxGeometry>
                </mxCell>
                <mxCell id="RT1BsosGw2K4Qha-ZVMB-3" value="Data Acquisition System&#10;&#10;(DAS)" style="shape=module;align=center;spacingLeft=20;align=center;verticalAlign=top;rounded=0;sketch=0;fontStyle=1;fontSize=16;" vertex="1" parent="mcHZdyTsLCvfjPUdVITN-1">
                    <mxGeometry x="340" y="245" width="240" height="185" as="geometry"/>
                </mxCell>
                <mxCell id="RT1BsosGw2K4Qha-ZVMB-4" value="Telemetry" style="shape=module;align=center;spacingLeft=20;align=center;verticalAlign=top;rounded=0;sketch=0;fontStyle=1;fontSize=16;" vertex="1" parent="mcHZdyTsLCvfjPUdVITN-1">
                    <mxGeometry x="600" y="250" width="150" height="55" as="geometry"/>
                </mxCell>
                <mxCell id="RT1BsosGw2K4Qha-ZVMB-5" value="Flight Controller" style="shape=module;align=center;spacingLeft=20;align=center;verticalAlign=top;rounded=0;sketch=0;fontStyle=1;fontSize=16;" vertex="1" parent="mcHZdyTsLCvfjPUdVITN-1">
                    <mxGeometry x="390" y="350" width="160" height="65" as="geometry"/>
                </mxCell>
                <mxCell id="aQC8paXmPiJQ8yZH3U2c-0" value="&lt;b&gt;&lt;font style=&quot;font-size: 14px&quot;&gt;External Devices (Sensors, Valves, etc.)&lt;/font&gt;&lt;/b&gt;" style="html=1;rounded=0;sketch=0;" vertex="1" parent="mcHZdyTsLCvfjPUdVITN-1">
                    <mxGeometry x="330" y="470" width="290" height="70" as="geometry"/>
                </mxCell>
                <mxCell id="aQC8paXmPiJQ8yZH3U2c-3" value="&lt;b&gt;&lt;font style=&quot;font-size: 14px&quot;&gt;Power System&lt;/font&gt;&lt;/b&gt;" style="html=1;rounded=0;sketch=0;" vertex="1" parent="mcHZdyTsLCvfjPUdVITN-1">
                    <mxGeometry x="640" y="470" width="130" height="70" as="geometry"/>
                </mxCell>
            </root>
        </mxGraphModel>
    </diagram>
    <diagram id="Qq6Kj_jMQ_SWNCFra1PU" name="Data Acquisition System">
        <mxGraphModel dx="1374" dy="800" grid="0" gridSize="10" guides="1" tooltips="1" connect="1" arrows="1" fold="1" page="1" pageScale="1" pageWidth="1654" pageHeight="1169" background="#F1FAEE" math="0" shadow="0">
            <root>
                <mxCell id="0"/>
                <mxCell id="1" parent="0"/>
                <mxCell id="HEbygqBgOdT5ULLkIGSS-1" value="&lt;span&gt;&lt;font style=&quot;font-size: 19px&quot;&gt;Control Peripheral (Interrupt, I/O, etc.)&lt;/font&gt;&lt;/span&gt;" style="whiteSpace=wrap;html=1;fillColor=#A8DADC;strokeColor=#457B9D;fontColor=#1D3557;rotation=90;fontStyle=1;strokeWidth=1;rounded=1;sketch=1;" parent="1" vertex="1">
                    <mxGeometry x="619.75" y="548.75" width="651" height="50" as="geometry"/>
                </mxCell>
                <mxCell id="96" style="edgeStyle=orthogonalEdgeStyle;orthogonalLoop=1;jettySize=auto;html=1;exitX=0;exitY=0.25;exitDx=0;exitDy=0;entryX=0.5;entryY=0;entryDx=0;entryDy=0;fillColor=#a20025;fontStyle=1;strokeWidth=1;labelBackgroundColor=#F1FAEE;curved=1;sketch=1;fontColor=#1D3557;strokeColor=#3399FF;" parent="1" source="zpe9MYXDSiPziy__MkWN-1" target="37" edge="1">
                    <mxGeometry relative="1" as="geometry"/>
                </mxCell>
                <mxCell id="129" style="edgeStyle=orthogonalEdgeStyle;orthogonalLoop=1;jettySize=auto;html=1;exitX=0.5;exitY=0;exitDx=0;exitDy=0;entryX=0.25;entryY=1;entryDx=0;entryDy=0;labelBackgroundColor=none;startSize=10;endSize=13;strokeColor=#6F0000;fontColor=#1D3557;curved=1;sketch=1;fillColor=#a20025;strokeWidth=1;fontStyle=1" edge="1" parent="1" source="zpe9MYXDSiPziy__MkWN-1" target="30">
                    <mxGeometry relative="1" as="geometry"/>
                </mxCell>
                <mxCell id="zpe9MYXDSiPziy__MkWN-1" value="TaskSampleGPS" style="swimlane;fontStyle=1;align=center;verticalAlign=top;childLayout=stackLayout;horizontal=1;startSize=26;horizontalStack=0;resizeParent=1;resizeParentMax=0;resizeLast=0;collapsible=1;marginBottom=0;fillColor=#A8DADC;strokeColor=#457B9D;fontColor=#1D3557;strokeWidth=1;rounded=1;sketch=1;" parent="1" vertex="1">
                    <mxGeometry x="123" y="491" width="125" height="103" as="geometry"/>
                </mxCell>
                <mxCell id="zpe9MYXDSiPziy__MkWN-3" value="" style="line;strokeWidth=1;fillColor=none;align=left;verticalAlign=middle;spacingTop=-1;spacingLeft=3;spacingRight=3;rotatable=0;labelPosition=right;points=[];portConstraint=eastwest;strokeColor=#457B9D;fontColor=#1D3557;fontStyle=1;labelBackgroundColor=#F1FAEE;rounded=1;sketch=1;" parent="zpe9MYXDSiPziy__MkWN-1" vertex="1">
                    <mxGeometry y="26" width="125" height="8" as="geometry"/>
                </mxCell>
                <mxCell id="zpe9MYXDSiPziy__MkWN-4" value="Topic_UTC_Time&#10;Topic_WGS84&#10;Topic_GNSS&#10;Topic_Altitude" style="text;strokeColor=none;fillColor=none;align=left;verticalAlign=top;spacingLeft=4;spacingRight=4;overflow=hidden;rotatable=0;points=[[0,0.5],[1,0.5]];portConstraint=eastwest;fontColor=#1D3557;fontStyle=1;strokeWidth=1;rounded=1;sketch=1;" parent="zpe9MYXDSiPziy__MkWN-1" vertex="1">
                    <mxGeometry y="34" width="125" height="69" as="geometry"/>
                </mxCell>
                <mxCell id="zpe9MYXDSiPziy__MkWN-5" value="UART" style="html=1;fillColor=#A8DADC;strokeColor=#457B9D;fontColor=#1D3557;fontStyle=1;fontSize=17;strokeWidth=1;rounded=1;sketch=1;" parent="1" vertex="1">
                    <mxGeometry x="148" y="797" width="110" height="50" as="geometry"/>
                </mxCell>
                <mxCell id="zpe9MYXDSiPziy__MkWN-6" value="&lt;p style=&quot;margin: 0px ; margin-top: 4px ; text-align: center&quot;&gt;&lt;span&gt;Sensor Base&lt;/span&gt;&lt;/p&gt;&lt;hr size=&quot;1&quot;&gt;&lt;p style=&quot;margin: 0px 0px 0px 4px&quot;&gt;&lt;span style=&quot;font-size: 11px&quot;&gt;Attributes:&lt;/span&gt;&lt;/p&gt;&lt;p style=&quot;margin: 0px 0px 0px 4px&quot;&gt;&lt;span style=&quot;font-size: 11px&quot;&gt;Sample&amp;lt;Time, Data&amp;gt;&lt;/span&gt;&lt;/p&gt;&lt;p style=&quot;margin: 0px 0px 0px 4px&quot;&gt;&lt;span style=&quot;&quot;&gt;Peripheral* port, baud&lt;/span&gt;&lt;/p&gt;&lt;p style=&quot;margin: 0px 0px 0px 4px&quot;&gt;&lt;span style=&quot;&quot;&gt;&amp;nbsp;&lt;/span&gt;&lt;/p&gt;&lt;p style=&quot;margin: 0px 0px 0px 4px&quot;&gt;&lt;span&gt;Methods:&lt;/span&gt;&lt;/p&gt;&lt;p style=&quot;margin: 0px 0px 0px 4px&quot;&gt;&lt;span style=&quot;font-size: 11px&quot;&gt;- begin()&lt;/span&gt;&lt;br&gt;&lt;/p&gt;&lt;p style=&quot;margin: 0px 0px 0px 4px ; font-size: 11px&quot;&gt;- parse()&lt;/p&gt;&lt;p style=&quot;margin: 0px 0px 0px 4px ; font-size: 11px&quot;&gt;- sampleFrequency()&lt;/p&gt;&lt;p style=&quot;margin: 0px 0px 0px 4px ; font-size: 11px&quot;&gt;- publish()&lt;/p&gt;" style="verticalAlign=top;align=left;overflow=fill;fontSize=12;fontFamily=Helvetica;html=1;fillColor=#A8DADC;strokeColor=#457B9D;fontColor=#1D3557;fontStyle=1;strokeWidth=1;rounded=1;sketch=1;" parent="1" vertex="1">
                    <mxGeometry x="313" y="637" width="141" height="160" as="geometry"/>
                </mxCell>
                <mxCell id="174" style="edgeStyle=orthogonalEdgeStyle;curved=1;rounded=1;sketch=1;orthogonalLoop=1;jettySize=auto;html=1;exitX=0.5;exitY=0;exitDx=0;exitDy=0;entryX=0.5;entryY=1;entryDx=0;entryDy=0;strokeWidth=1;fillColor=#A8DADC;fontSize=15;fontColor=#660000;strokeColor=#660000;" edge="1" parent="1" source="2" target="36">
                    <mxGeometry relative="1" as="geometry"/>
                </mxCell>
                <mxCell id="2" value="Unlocked GPS" style="html=1;fillColor=#A8DADC;strokeColor=#457B9D;fontColor=#1D3557;fontStyle=1;strokeWidth=1;rounded=1;sketch=1;" parent="1" vertex="1">
                    <mxGeometry x="129" y="927" width="110" height="50" as="geometry"/>
                </mxCell>
                <mxCell id="175" style="edgeStyle=orthogonalEdgeStyle;curved=1;rounded=1;sketch=1;orthogonalLoop=1;jettySize=auto;html=1;exitX=0.5;exitY=0;exitDx=0;exitDy=0;strokeWidth=1;fillColor=#A8DADC;fontSize=15;fontColor=#660000;strokeColor=#660000;" edge="1" parent="1" source="3" target="36">
                    <mxGeometry relative="1" as="geometry"/>
                </mxCell>
                <mxCell id="3" value="IMU&amp;nbsp;" style="html=1;fillColor=#A8DADC;strokeColor=#457B9D;fontColor=#1D3557;fontStyle=1;strokeWidth=1;rounded=1;sketch=1;" parent="1" vertex="1">
                    <mxGeometry x="319" y="927" width="110" height="50" as="geometry"/>
                </mxCell>
                <mxCell id="176" style="edgeStyle=orthogonalEdgeStyle;curved=1;rounded=1;sketch=1;orthogonalLoop=1;jettySize=auto;html=1;exitX=0.5;exitY=0;exitDx=0;exitDy=0;strokeWidth=1;fillColor=#A8DADC;fontSize=15;fontColor=#660000;strokeColor=#660000;" edge="1" parent="1" source="4" target="36">
                    <mxGeometry relative="1" as="geometry"/>
                </mxCell>
                <mxCell id="4" value="Thermocouples&lt;br&gt;" style="html=1;fillColor=#A8DADC;strokeColor=#457B9D;fontColor=#1D3557;fontStyle=1;strokeWidth=1;rounded=1;sketch=1;" parent="1" vertex="1">
                    <mxGeometry x="463" y="929" width="110" height="50" as="geometry"/>
                </mxCell>
                <mxCell id="177" style="edgeStyle=orthogonalEdgeStyle;curved=1;rounded=1;sketch=1;orthogonalLoop=1;jettySize=auto;html=1;exitX=0.5;exitY=0;exitDx=0;exitDy=0;strokeWidth=1;fillColor=#A8DADC;fontSize=15;fontColor=#660000;strokeColor=#660000;" edge="1" parent="1" source="5" target="36">
                    <mxGeometry relative="1" as="geometry"/>
                </mxCell>
                <mxCell id="5" value="Barometer&amp;nbsp;" style="html=1;fillColor=#A8DADC;strokeColor=#457B9D;fontColor=#1D3557;fontStyle=1;strokeWidth=1;rounded=1;sketch=1;" parent="1" vertex="1">
                    <mxGeometry x="609" y="927" width="110" height="50" as="geometry"/>
                </mxCell>
                <mxCell id="6" value="SPI&amp;nbsp;" style="html=1;fillColor=#A8DADC;strokeColor=#457B9D;fontColor=#1D3557;fontStyle=1;fontSize=17;strokeWidth=1;rounded=1;sketch=1;" parent="1" vertex="1">
                    <mxGeometry x="461" y="795" width="110" height="50" as="geometry"/>
                </mxCell>
                <mxCell id="7" value="I2C" style="html=1;fillColor=#A8DADC;strokeColor=#457B9D;fontColor=#1D3557;fontStyle=1;fontSize=17;strokeWidth=1;rounded=1;sketch=1;" parent="1" vertex="1">
                    <mxGeometry x="578" y="797" width="110" height="50" as="geometry"/>
                </mxCell>
                <mxCell id="95" style="edgeStyle=orthogonalEdgeStyle;orthogonalLoop=1;jettySize=auto;html=1;exitX=0;exitY=0.25;exitDx=0;exitDy=0;fillColor=#1ba1e2;fontColor=#1D3557;fontStyle=1;strokeWidth=1;labelBackgroundColor=#F1FAEE;curved=1;sketch=1;strokeColor=#007FFF;" parent="1" source="10" target="47" edge="1">
                    <mxGeometry relative="1" as="geometry">
                        <Array as="points">
                            <mxPoint x="463" y="516"/>
                            <mxPoint x="463" y="606"/>
                            <mxPoint x="634" y="606"/>
                        </Array>
                    </mxGeometry>
                </mxCell>
                <mxCell id="130" style="edgeStyle=orthogonalEdgeStyle;orthogonalLoop=1;jettySize=auto;html=1;exitX=0.5;exitY=0;exitDx=0;exitDy=0;entryX=0.75;entryY=1;entryDx=0;entryDy=0;labelBackgroundColor=none;startSize=10;endSize=13;strokeColor=#6F0000;fontColor=#1D3557;curved=1;sketch=1;fillColor=#a20025;fontStyle=1" edge="1" parent="1" source="10" target="30">
                    <mxGeometry relative="1" as="geometry"/>
                </mxCell>
                <mxCell id="10" value="TaskSampleInertial" style="swimlane;fontStyle=1;align=center;verticalAlign=top;childLayout=stackLayout;horizontal=1;startSize=26;horizontalStack=0;resizeParent=1;resizeParentMax=0;resizeLast=0;collapsible=1;marginBottom=0;fillColor=#A8DADC;strokeColor=#457B9D;fontColor=#1D3557;strokeWidth=1;rounded=1;sketch=1;" parent="1" vertex="1">
                    <mxGeometry x="504" y="491" width="149" height="100" as="geometry"/>
                </mxCell>
                <mxCell id="12" value="" style="line;strokeWidth=1;fillColor=none;align=left;verticalAlign=middle;spacingTop=-1;spacingLeft=3;spacingRight=3;rotatable=0;labelPosition=right;points=[];portConstraint=eastwest;strokeColor=#457B9D;fontColor=#1D3557;fontStyle=1;labelBackgroundColor=#F1FAEE;rounded=1;sketch=1;" parent="10" vertex="1">
                    <mxGeometry y="26" width="149" height="8" as="geometry"/>
                </mxCell>
                <mxCell id="13" value="Topic_Attitude_Rate&#10;Topic_Acceleration" style="text;strokeColor=none;fillColor=none;align=left;verticalAlign=top;spacingLeft=4;spacingRight=4;overflow=hidden;rotatable=0;points=[[0,0.5],[1,0.5]];portConstraint=eastwest;fontColor=#1D3557;fontStyle=1;strokeWidth=1;rounded=1;sketch=1;" parent="10" vertex="1">
                    <mxGeometry y="34" width="149" height="66" as="geometry"/>
                </mxCell>
                <mxCell id="18" value="Fusion Layer IMU" style="swimlane;fontStyle=1;align=center;verticalAlign=top;childLayout=stackLayout;horizontal=1;startSize=26;horizontalStack=0;resizeParent=1;resizeParentMax=0;resizeLast=0;collapsible=1;marginBottom=0;fillColor=#A8DADC;strokeColor=#457B9D;fontColor=#1D3557;strokeWidth=1;rounded=1;sketch=1;" parent="1" vertex="1">
                    <mxGeometry x="163" y="256" width="160" height="52" as="geometry"/>
                </mxCell>
                <mxCell id="21" value="Topic_Attitude" style="text;strokeColor=none;fillColor=none;align=left;verticalAlign=top;spacingLeft=4;spacingRight=4;overflow=hidden;rotatable=0;points=[[0,0.5],[1,0.5]];portConstraint=eastwest;fontColor=#1D3557;fontStyle=1;strokeWidth=1;rounded=1;sketch=1;" parent="18" vertex="1">
                    <mxGeometry y="26" width="160" height="26" as="geometry"/>
                </mxCell>
                <mxCell id="168" style="edgeStyle=orthogonalEdgeStyle;curved=1;rounded=1;sketch=1;orthogonalLoop=1;jettySize=auto;html=1;exitX=1;exitY=0.25;exitDx=0;exitDy=0;strokeColor=#457B9D;strokeWidth=1;fillColor=#A8DADC;fontSize=15;fontColor=#1D3557;" edge="1" parent="1" source="26" target="102">
                    <mxGeometry relative="1" as="geometry"/>
                </mxCell>
                <mxCell id="26" value="TaskLogging" style="swimlane;fontStyle=1;align=center;verticalAlign=top;childLayout=stackLayout;horizontal=1;startSize=26;horizontalStack=0;resizeParent=1;resizeParentMax=0;resizeLast=0;collapsible=1;marginBottom=0;fillColor=#A8DADC;strokeColor=#457B9D;fontColor=#1D3557;strokeWidth=1;rounded=1;sketch=1;" parent="1" vertex="1">
                    <mxGeometry x="792" y="696" width="120" height="68" as="geometry"/>
                </mxCell>
                <mxCell id="124" style="edgeStyle=orthogonalEdgeStyle;orthogonalLoop=1;jettySize=auto;html=1;exitX=1;exitY=1;exitDx=0;exitDy=0;entryX=0;entryY=0.5;entryDx=0;entryDy=0;fontColor=#1D3557;labelBackgroundColor=none;labelBorderColor=none;endSize=13;startSize=10;strokeColor=#6F0000;curved=1;sketch=1;fillColor=#a20025;strokeWidth=1;fontStyle=1" edge="1" parent="1" source="30" target="107">
                    <mxGeometry relative="1" as="geometry">
                        <Array as="points">
                            <mxPoint x="752" y="582"/>
                        </Array>
                    </mxGeometry>
                </mxCell>
                <mxCell id="125" style="edgeStyle=orthogonalEdgeStyle;orthogonalLoop=1;jettySize=auto;html=1;exitX=1;exitY=1;exitDx=0;exitDy=0;entryX=0.5;entryY=0;entryDx=0;entryDy=0;labelBackgroundColor=none;startSize=10;endSize=13;strokeColor=#6F0000;fontColor=#1D3557;curved=1;sketch=1;fillColor=#a20025;strokeWidth=1;fontStyle=1" edge="1" parent="1" source="30" target="26">
                    <mxGeometry relative="1" as="geometry">
                        <Array as="points">
                            <mxPoint x="752" y="633"/>
                            <mxPoint x="856" y="633"/>
                        </Array>
                    </mxGeometry>
                </mxCell>
                <mxCell id="30" value="&lt;span&gt;&lt;font style=&quot;font-size: 19px&quot;&gt;DAS Sensor Main Board - Data Control - Publish and Subscribe Service&lt;/font&gt;&lt;/span&gt;" style="whiteSpace=wrap;html=1;fillColor=#A8DADC;strokeColor=#457B9D;fontColor=#1D3557;fontStyle=1;strokeWidth=1;rounded=1;sketch=1;" parent="1" vertex="1">
                    <mxGeometry x="83" y="412" width="669" height="46" as="geometry"/>
                </mxCell>
                <mxCell id="36" value="&lt;span style=&quot;font-size: 19px&quot;&gt;PERRIPHERAL&lt;/span&gt;" style="whiteSpace=wrap;html=1;fillColor=#A8DADC;strokeColor=#457B9D;fontColor=#1D3557;rotation=0;fontStyle=1;strokeWidth=1;rounded=1;sketch=1;" parent="1" vertex="1">
                    <mxGeometry x="86" y="847" width="881" height="52" as="geometry"/>
                </mxCell>
                <mxCell id="97" style="edgeStyle=orthogonalEdgeStyle;orthogonalLoop=1;jettySize=auto;html=1;exitX=1;exitY=0;exitDx=0;exitDy=0;entryX=0.5;entryY=0;entryDx=0;entryDy=0;fillColor=#1ba1e2;fontColor=#1D3557;fontStyle=1;strokeWidth=1;labelBackgroundColor=#F1FAEE;curved=1;sketch=1;strokeColor=#007FFF;" parent="1" source="37" target="zpe9MYXDSiPziy__MkWN-6" edge="1">
                    <mxGeometry relative="1" as="geometry">
                        <Array as="points">
                            <mxPoint x="275" y="619"/>
                            <mxPoint x="380" y="619"/>
                            <mxPoint x="380" y="637"/>
                        </Array>
                    </mxGeometry>
                </mxCell>
                <mxCell id="37" value="TaskSampleAsynch" style="swimlane;fontStyle=1;align=center;verticalAlign=top;childLayout=stackLayout;horizontal=1;startSize=26;horizontalStack=0;resizeParent=1;resizeParentMax=0;resizeLast=0;collapsible=1;marginBottom=0;fillColor=#A8DADC;strokeColor=#457B9D;fontColor=#1D3557;strokeWidth=1;rounded=1;sketch=1;" parent="1" vertex="1">
                    <mxGeometry x="126" y="696.5" width="140" height="26" as="geometry"/>
                </mxCell>
                <mxCell id="99" style="edgeStyle=orthogonalEdgeStyle;orthogonalLoop=1;jettySize=auto;html=1;exitX=0;exitY=0;exitDx=0;exitDy=0;entryX=0.5;entryY=0;entryDx=0;entryDy=0;fillColor=#1ba1e2;fontColor=#1D3557;fontStyle=1;strokeWidth=1;labelBackgroundColor=#F1FAEE;curved=1;sketch=1;strokeColor=#007FFF;" parent="1" source="47" target="zpe9MYXDSiPziy__MkWN-6" edge="1">
                    <mxGeometry relative="1" as="geometry">
                        <Array as="points">
                            <mxPoint x="514" y="697"/>
                            <mxPoint x="514" y="608"/>
                            <mxPoint x="383" y="608"/>
                        </Array>
                    </mxGeometry>
                </mxCell>
                <mxCell id="47" value="TaskSampleSynch" style="swimlane;fontStyle=1;align=center;verticalAlign=top;childLayout=stackLayout;horizontal=1;startSize=26;horizontalStack=0;resizeParent=1;resizeParentMax=0;resizeLast=0;collapsible=1;marginBottom=0;fillColor=#A8DADC;strokeColor=#457B9D;fontColor=#1D3557;strokeWidth=1;fontSize=12;rounded=1;sketch=1;" parent="1" vertex="1">
                    <mxGeometry x="518.5" y="697" width="150" height="25" as="geometry"/>
                </mxCell>
                <mxCell id="104" style="edgeStyle=orthogonalEdgeStyle;orthogonalLoop=1;jettySize=auto;html=1;exitX=1;exitY=0.25;exitDx=0;exitDy=0;fillColor=#a20025;fontStyle=1;strokeWidth=1;labelBackgroundColor=#F1FAEE;curved=1;sketch=1;fontColor=#1D3557;strokeColor=#3399FF;" parent="1" source="51" target="47" edge="1">
                    <mxGeometry relative="1" as="geometry">
                        <Array as="points">
                            <mxPoint x="450" y="522"/>
                            <mxPoint x="461" y="522"/>
                            <mxPoint x="461" y="603"/>
                            <mxPoint x="634" y="603"/>
                        </Array>
                    </mxGeometry>
                </mxCell>
                <mxCell id="127" style="edgeStyle=orthogonalEdgeStyle;orthogonalLoop=1;jettySize=auto;html=1;exitX=0.5;exitY=0;exitDx=0;exitDy=0;entryX=0.5;entryY=1;entryDx=0;entryDy=0;labelBackgroundColor=none;startSize=10;endSize=13;strokeColor=#6F0000;fontColor=#1D3557;curved=1;sketch=1;fillColor=#a20025;strokeWidth=1;fontStyle=1" edge="1" parent="1" source="51" target="30">
                    <mxGeometry relative="1" as="geometry">
                        <Array as="points">
                            <mxPoint x="386" y="480"/>
                            <mxPoint x="418" y="480"/>
                        </Array>
                    </mxGeometry>
                </mxCell>
                <mxCell id="51" value="TaskSampleThermo" style="swimlane;fontStyle=1;align=center;verticalAlign=top;childLayout=stackLayout;horizontal=1;startSize=26;horizontalStack=0;resizeParent=1;resizeParentMax=0;resizeLast=0;collapsible=1;marginBottom=0;fillColor=#A8DADC;strokeColor=#457B9D;fontColor=#1D3557;strokeWidth=1;rounded=1;sketch=1;" parent="1" vertex="1">
                    <mxGeometry x="323" y="490" width="127" height="101" as="geometry"/>
                </mxCell>
                <mxCell id="53" value="" style="line;strokeWidth=1;fillColor=none;align=left;verticalAlign=middle;spacingTop=-1;spacingLeft=3;spacingRight=3;rotatable=0;labelPosition=right;points=[];portConstraint=eastwest;strokeColor=#457B9D;fontColor=#1D3557;fontStyle=1;labelBackgroundColor=#F1FAEE;rounded=1;sketch=1;" parent="51" vertex="1">
                    <mxGeometry y="26" width="127" height="8" as="geometry"/>
                </mxCell>
                <mxCell id="54" value="Topic_ADCx_Temp" style="text;strokeColor=none;fillColor=none;align=left;verticalAlign=top;spacingLeft=4;spacingRight=4;overflow=hidden;rotatable=0;points=[[0,0.5],[1,0.5]];portConstraint=eastwest;fontColor=#1D3557;fontStyle=1;strokeWidth=1;rounded=1;sketch=1;" parent="51" vertex="1">
                    <mxGeometry y="34" width="127" height="67" as="geometry"/>
                </mxCell>
                <mxCell id="102" value="Logging &lt;br&gt;SD Card" style="html=1;fillColor=#A8DADC;strokeColor=#457B9D;fontColor=#1D3557;fontStyle=1;strokeWidth=1;rounded=1;sketch=1;" parent="1" vertex="1">
                    <mxGeometry x="984" y="817.5" width="68" height="53" as="geometry"/>
                </mxCell>
                <mxCell id="103" value="Telemetry" style="html=1;fillColor=#A8DADC;strokeColor=#457B9D;fontColor=#1D3557;fontStyle=1;strokeWidth=1;rounded=1;sketch=1;" parent="1" vertex="1">
                    <mxGeometry x="984" y="558" width="70" height="50" as="geometry"/>
                </mxCell>
                <mxCell id="zpe9MYXDSiPziy__MkWN-7" value="Datalogging /&lt;br&gt;External Communication&lt;br&gt;UART, SPI, I2C, ..." style="html=1;fillColor=#A8DADC;strokeColor=#457B9D;fontColor=#1D3557;direction=south;fontStyle=1;strokeWidth=1;rounded=1;sketch=1;" parent="1" vertex="1">
                    <mxGeometry x="831" y="789" width="140" height="110" as="geometry"/>
                </mxCell>
                <mxCell id="167" style="edgeStyle=orthogonalEdgeStyle;curved=1;rounded=1;sketch=1;orthogonalLoop=1;jettySize=auto;html=1;exitX=1;exitY=0.5;exitDx=0;exitDy=0;entryX=0;entryY=0.5;entryDx=0;entryDy=0;strokeColor=#457B9D;strokeWidth=1;fillColor=#A8DADC;fontSize=15;fontColor=#1D3557;" edge="1" parent="1" source="107" target="103">
                    <mxGeometry relative="1" as="geometry"/>
                </mxCell>
                <mxCell id="107" value="UART ?" style="html=1;fillColor=#A8DADC;strokeColor=#457B9D;fontColor=#1D3557;fontStyle=1;fontSize=15;strokeWidth=1;rounded=1;sketch=1;" parent="1" vertex="1">
                    <mxGeometry x="824" y="558" width="91" height="48" as="geometry"/>
                </mxCell>
                <mxCell id="108" value="Fusion Layer AGL" style="swimlane;fontStyle=1;align=center;verticalAlign=top;childLayout=stackLayout;horizontal=1;startSize=26;horizontalStack=0;resizeParent=1;resizeParentMax=0;resizeLast=0;collapsible=1;marginBottom=0;fillColor=#A8DADC;strokeColor=#457B9D;fontColor=#1D3557;strokeWidth=1;rounded=1;sketch=1;" parent="1" vertex="1">
                    <mxGeometry x="343" y="256" width="160" height="52" as="geometry"/>
                </mxCell>
                <mxCell id="109" value="Topic_AGL" style="text;strokeColor=none;fillColor=none;align=left;verticalAlign=top;spacingLeft=4;spacingRight=4;overflow=hidden;rotatable=0;points=[[0,0.5],[1,0.5]];portConstraint=eastwest;fontColor=#1D3557;fontStyle=1;strokeWidth=1;rounded=1;sketch=1;" parent="108" vertex="1">
                    <mxGeometry y="26" width="160" height="26" as="geometry"/>
                </mxCell>
                <mxCell id="113" value="Fusion Layer ?" style="swimlane;fontStyle=1;align=center;verticalAlign=top;childLayout=stackLayout;horizontal=1;startSize=26;horizontalStack=0;resizeParent=1;resizeParentMax=0;resizeLast=0;collapsible=1;marginBottom=0;fillColor=#A8DADC;strokeColor=#457B9D;fontColor=#1D3557;strokeWidth=1;rounded=1;sketch=1;" parent="1" vertex="1">
                    <mxGeometry x="522.5" y="256" width="160" height="52" as="geometry"/>
                </mxCell>
                <mxCell id="114" value="?" style="text;strokeColor=none;fillColor=none;align=center;verticalAlign=top;spacingLeft=4;spacingRight=4;overflow=hidden;rotatable=0;points=[[0,0.5],[1,0.5]];portConstraint=eastwest;fontColor=#1D3557;fontStyle=1;strokeWidth=1;rounded=1;sketch=1;" parent="113" vertex="1">
                    <mxGeometry y="26" width="160" height="26" as="geometry"/>
                </mxCell>
                <mxCell id="178" style="edgeStyle=orthogonalEdgeStyle;curved=1;rounded=1;sketch=1;orthogonalLoop=1;jettySize=auto;html=1;exitX=0.5;exitY=0;exitDx=0;exitDy=0;entryX=0.5;entryY=1;entryDx=0;entryDy=0;strokeWidth=1;fillColor=#A8DADC;fontSize=15;fontColor=#660000;strokeColor=#660000;" edge="1" parent="1" source="115" target="36">
                    <mxGeometry relative="1" as="geometry"/>
                </mxCell>
                <mxCell id="115" value="Camera" style="html=1;fillColor=#A8DADC;strokeColor=#457B9D;fontColor=#1D3557;fontStyle=1;strokeWidth=1;rounded=1;sketch=1;" vertex="1" parent="1">
                    <mxGeometry x="750" y="927" width="110" height="50" as="geometry"/>
                </mxCell>
                <mxCell id="121" value="Algorithm Layer " style="swimlane;fontStyle=1;align=center;verticalAlign=top;childLayout=stackLayout;horizontal=1;startSize=26;horizontalStack=0;resizeParent=1;resizeParentMax=0;resizeLast=0;collapsible=1;marginBottom=0;fillColor=#A8DADC;strokeColor=#457B9D;fontColor=#1D3557;strokeWidth=1;rounded=1;sketch=1;" vertex="1" parent="1">
                    <mxGeometry x="340" y="315" width="160" height="25" as="geometry"/>
                </mxCell>
                <mxCell id="136" value="" style="html=1;shadow=0;dashed=0;align=center;verticalAlign=middle;shape=mxgraph.arrows2.twoWayArrow;dy=0.65;dx=22;strokeColor=#457B9D;fontColor=#1D3557;rotation=-90;fillColor=none;strokeWidth=2;rounded=1;sketch=1;fontStyle=1" vertex="1" parent="1">
                    <mxGeometry x="379" y="363" width="67" height="27" as="geometry"/>
                </mxCell>
                <mxCell id="139" value="Frequency&#10;Message" style="text;strokeColor=none;fillColor=none;align=left;verticalAlign=top;spacingLeft=4;spacingRight=4;overflow=hidden;rotatable=0;points=[[0,0.5],[1,0.5]];portConstraint=eastwest;fontColor=#1D3557;fontStyle=1;strokeWidth=1;rounded=1;sketch=1;" vertex="1" parent="1">
                    <mxGeometry x="792" y="722" width="120" height="44" as="geometry"/>
                </mxCell>
                <mxCell id="149" value="Legend" style="swimlane;fontStyle=1;childLayout=stackLayout;horizontal=1;startSize=26;fillColor=none;horizontalStack=0;resizeParent=1;resizeParentMax=0;resizeLast=0;collapsible=1;marginBottom=0;strokeColor=#457B9D;fontColor=#1D3557;labelBackgroundColor=#F1FAEE;rounded=1;sketch=1;align=left;fontSize=15;verticalAlign=middle;" vertex="1" parent="1">
                    <mxGeometry x="1166" y="448" width="292" height="291" as="geometry"/>
                </mxCell>
                <mxCell id="150" value="Bidirectional data flow" style="text;strokeColor=none;fillColor=none;align=left;verticalAlign=middle;spacingLeft=4;spacingRight=4;overflow=hidden;rotatable=0;points=[[0,0.5],[1,0.5]];portConstraint=eastwest;fontColor=#1D3557;rounded=1;sketch=1;fontStyle=1;fontSize=15;" vertex="1" parent="149">
                    <mxGeometry y="26" width="292" height="84" as="geometry"/>
                </mxCell>
                <mxCell id="151" value="One directional data flow" style="text;strokeColor=none;fillColor=none;align=left;verticalAlign=middle;spacingLeft=4;spacingRight=4;overflow=hidden;rotatable=0;points=[[0,0.5],[1,0.5]];portConstraint=eastwest;fontColor=#1D3557;rounded=1;sketch=1;fontStyle=1;fontSize=15;" vertex="1" parent="149">
                    <mxGeometry y="110" width="292" height="93" as="geometry"/>
                </mxCell>
                <mxCell id="157" style="edgeStyle=orthogonalEdgeStyle;orthogonalLoop=1;jettySize=auto;html=1;entryX=0.5;entryY=0;entryDx=0;entryDy=0;strokeColor=#457B9D;fillColor=#A8DADC;fontStyle=1;strokeWidth=1;labelBackgroundColor=#F1FAEE;curved=1;sketch=1;fontSize=15;fontColor=#007FFF;" edge="1" parent="149">
                    <mxGeometry relative="1" as="geometry">
                        <Array as="points">
                            <mxPoint x="220" y="272"/>
                            <mxPoint x="239" y="272"/>
                            <mxPoint x="239" y="208"/>
                        </Array>
                        <mxPoint x="220" y="256" as="sourcePoint"/>
                        <mxPoint x="265.5" y="207.47000000000003" as="targetPoint"/>
                    </mxGeometry>
                </mxCell>
                <mxCell id="155" style="edgeStyle=orthogonalEdgeStyle;orthogonalLoop=1;jettySize=auto;html=1;exitX=1;exitY=1;exitDx=0;exitDy=0;entryX=0;entryY=0.5;entryDx=0;entryDy=0;fontColor=#1D3557;labelBackgroundColor=none;labelBorderColor=none;endSize=13;startSize=10;strokeColor=#6F0000;curved=1;sketch=1;fillColor=#a20025;fontSize=15;verticalAlign=middle;fontStyle=1" edge="1" parent="149">
                    <mxGeometry relative="1" as="geometry">
                        <mxPoint x="192.9999999999991" y="160" as="sourcePoint"/>
                        <mxPoint x="266" y="140" as="targetPoint"/>
                        <Array as="points">
                            <mxPoint x="266" y="160"/>
                        </Array>
                    </mxGeometry>
                </mxCell>
                <mxCell id="152" value="Class Instance" style="text;strokeColor=none;fillColor=none;align=left;verticalAlign=middle;spacingLeft=4;spacingRight=4;overflow=hidden;rotatable=0;points=[[0,0.5],[1,0.5]];portConstraint=eastwest;fontColor=#1D3557;rounded=1;sketch=1;fontSize=15;fontStyle=1" vertex="1" parent="149">
                    <mxGeometry y="203" width="292" height="88" as="geometry"/>
                </mxCell>
                <mxCell id="154" value="" style="html=1;shadow=0;dashed=0;align=center;verticalAlign=middle;shape=mxgraph.arrows2.twoWayArrow;dy=0.85;dx=18;strokeColor=#457B9D;fontColor=#1D3557;rotation=-180;fillColor=none;strokeWidth=2;rounded=1;sketch=1;fontSize=15;fontStyle=1" vertex="1" parent="1">
                    <mxGeometry x="1369" y="489" width="52" height="20.5" as="geometry"/>
                </mxCell>
                <mxCell id="158" value="Igniter" style="html=1;fillColor=#A8DADC;strokeColor=#457B9D;fontColor=#1D3557;fontStyle=1;strokeWidth=1;rounded=1;sketch=1;" vertex="1" parent="1">
                    <mxGeometry x="982" y="348" width="71" height="50" as="geometry"/>
                </mxCell>
                <mxCell id="164" style="edgeStyle=orthogonalEdgeStyle;curved=1;rounded=1;sketch=1;orthogonalLoop=1;jettySize=auto;html=1;exitX=0;exitY=0.5;exitDx=0;exitDy=0;strokeColor=#457B9D;strokeWidth=1;fillColor=#A8DADC;fontSize=15;fontColor=#1D3557;" edge="1" parent="1" source="159" target="163">
                    <mxGeometry relative="1" as="geometry"/>
                </mxCell>
                <mxCell id="159" value="Safty &lt;br&gt;Switch" style="html=1;fillColor=#A8DADC;strokeColor=#457B9D;fontColor=#1D3557;fontStyle=1;strokeWidth=1;rounded=1;sketch=1;" vertex="1" parent="1">
                    <mxGeometry x="983" y="248" width="70" height="53" as="geometry"/>
                </mxCell>
                <mxCell id="161" value="Valves" style="html=1;fillColor=#A8DADC;strokeColor=#457B9D;fontColor=#1D3557;fontStyle=1;strokeWidth=1;rounded=1;sketch=1;" vertex="1" parent="1">
                    <mxGeometry x="984" y="416" width="71" height="50" as="geometry"/>
                </mxCell>
                <mxCell id="165" style="edgeStyle=orthogonalEdgeStyle;curved=1;rounded=1;sketch=1;orthogonalLoop=1;jettySize=auto;html=1;exitX=1;exitY=0.5;exitDx=0;exitDy=0;entryX=0;entryY=0.5;entryDx=0;entryDy=0;strokeColor=#457B9D;strokeWidth=1;fillColor=#A8DADC;fontSize=15;fontColor=#1D3557;" edge="1" parent="1" source="162" target="158">
                    <mxGeometry relative="1" as="geometry"/>
                </mxCell>
                <mxCell id="166" style="edgeStyle=orthogonalEdgeStyle;curved=1;rounded=1;sketch=1;orthogonalLoop=1;jettySize=auto;html=1;exitX=1;exitY=0.5;exitDx=0;exitDy=0;entryX=0;entryY=0.5;entryDx=0;entryDy=0;strokeColor=#457B9D;strokeWidth=1;fillColor=#A8DADC;fontSize=15;fontColor=#1D3557;" edge="1" parent="1" source="162" target="161">
                    <mxGeometry relative="1" as="geometry"/>
                </mxCell>
                <mxCell id="162" value="Digital Out" style="html=1;fillColor=#A8DADC;strokeColor=#457B9D;fontColor=#1D3557;fontStyle=1;strokeWidth=1;rounded=1;sketch=1;" vertex="1" parent="1">
                    <mxGeometry x="838" y="369" width="71" height="50" as="geometry"/>
                </mxCell>
                <mxCell id="163" value="Digital In" style="html=1;fillColor=#A8DADC;strokeColor=#457B9D;fontColor=#1D3557;fontStyle=1;strokeWidth=1;rounded=1;sketch=1;" vertex="1" parent="1">
                    <mxGeometry x="834" y="248" width="71" height="50" as="geometry"/>
                </mxCell>
            </root>
        </mxGraphModel>
    </diagram>
    <diagram id="q_cL-0tLOfwKh_g-1QDS" name="Flight Controller System">
        <mxGraphModel dx="1374" dy="800" grid="1" gridSize="10" guides="1" tooltips="1" connect="1" arrows="1" fold="1" page="1" pageScale="1" pageWidth="1654" pageHeight="1169" math="0" shadow="0">
            <root>
                <mxCell id="Hu667XKSKbYee2Ul2DuN-0"/>
                <mxCell id="Hu667XKSKbYee2Ul2DuN-1" parent="Hu667XKSKbYee2Ul2DuN-0"/>
            </root>
        </mxGraphModel>
    </diagram>
</mxfile>